<svg width="40" height="20" viewBox="0 0 40 20" fill="none" xmlns="http://www.w3.org/2000/svg">
<g opacity="0.3">
<path d="M14.8435 3L16.7965 12.3518H13.9742L13.5585 10.3467H10.1533L8.9534 12.3518H5.83217L7.12793 10.3467L4 10.344L13.2181 8.67399L12.9285 7.3266L12.6847 6.11904L12.1728 6.97412L12.7641 7.19069H9.17009L11.8787 3.00229L14.8435 3ZM32.4907 3H25.668C25.6943 3.02904 25.7156 3.06232 25.7307 3.09851C25.7573 3.17425 25.7746 3.25299 25.7824 3.33287C25.8056 3.46915 25.8327 3.48924 25.8162 3.59397C25.7842 3.79625 25.7476 3.77664 25.6856 3.8956C25.6381 3.99144 25.6001 4.09172 25.5726 4.19508C25.5715 4.19937 25.5741 4.20372 25.5784 4.20476C25.5795 4.20501 25.5805 4.20507 25.5815 4.20486C25.6032 4.20486 25.6492 4.20937 25.6509 4.27757C25.6536 4.36667 25.549 4.54483 25.5194 4.59616C25.49 4.64737 25.4233 4.75073 25.3666 4.78374C25.2695 4.84034 25.2397 4.80733 25.2254 4.83631C25.2112 4.86529 25.1141 5.04796 25.0989 5.09782C25.0819 5.16201 25.0715 5.22766 25.0677 5.29393C25.0668 5.30289 25.0722 5.31125 25.0805 5.31445C25.2761 5.39108 25.7858 5.57244 25.9089 5.78049L24.1849 6.3397C24.426 6.31119 24.6907 6.27866 24.9255 6.2506C25.2463 6.21363 25.7658 6.15565 25.9329 6.15749C26.0773 6.16502 26.221 6.18239 26.3629 6.20958C26.5647 6.23679 26.7444 6.24343 26.9631 6.28754C27.0821 6.30495 27.1933 6.35685 27.2831 6.43684C27.2925 6.44306 27.3362 6.47873 27.3362 6.47873C27.6034 6.46006 28.0133 6.43416 28.1007 6.42664C28.1453 6.42302 28.2344 6.41816 28.2536 6.41597C29.0832 6.31029 29.5378 5.91336 29.9339 5.6722C30.3719 5.40494 31.0304 5.187 31.5019 5.17451C32.1114 5.15845 32.5498 5.26365 32.8417 5.52746C33.1335 5.79121 33.2477 6.1441 33.13 6.67434C33.0168 7.18495 32.8538 7.42072 32.4768 7.6546C32.0998 7.88854 31.6837 7.96377 31.1927 7.91884C30.3737 7.84356 29.642 7.33246 29.3528 7.1658C29.1042 7.02278 28.7624 6.87123 28.3779 6.83698C28.3028 6.83222 28.2275 6.83222 28.1524 6.83698C28.1261 6.83698 27.8137 6.86056 27.6177 6.87526C27.6329 6.92277 27.6416 6.97203 27.644 7.02189C27.6378 7.12213 27.5825 7.16978 27.521 7.16224C27.4594 7.15461 27.3239 7.05082 27.2835 6.96352C27.2795 6.95505 27.2671 6.95107 27.2671 6.96352C27.2671 6.97597 27.2671 6.99558 27.2671 7.00809C27.2638 7.0357 27.2475 7.11946 27.1882 7.13641C27.1242 7.14969 27.0577 7.13332 27.0073 7.09179C26.9938 7.08237 26.9751 7.08572 26.9657 7.09931C26.9645 7.10099 26.9636 7.10288 26.9626 7.10476C26.9414 7.16586 26.9288 7.20191 26.8138 7.17967C26.7349 7.17119 26.7515 7.20195 26.7011 7.21173C26.5786 7.23491 26.5192 7.16984 26.4223 7.12484C26.325 7.07985 26.3572 6.98756 26.2605 6.97114C26.2418 6.96758 26.2092 6.96178 26.1909 6.95953C26.2612 7.18892 26.3126 7.42359 26.3447 7.66129C26.3459 7.67034 26.3397 7.67871 26.3307 7.67996C26.3305 7.68002 26.3305 7.68002 26.3304 7.68002L26.2314 7.69205C26.223 7.69257 26.2168 7.69974 26.2172 7.70821C26.2173 7.70888 26.2174 7.70963 26.2176 7.7103C26.2421 7.83815 26.304 8.07753 26.3174 8.24985C26.3414 8.56179 26.3375 8.65532 26.3174 8.8109C26.3163 8.81962 26.3225 8.82768 26.3313 8.82884C26.3328 8.82905 26.3345 8.829 26.3362 8.82873C26.3766 8.82115 26.4154 8.80608 26.4502 8.78411C26.4537 8.72218 26.4656 8.66098 26.4859 8.60227C26.4958 8.58866 26.5066 8.57554 26.518 8.56315C26.5261 8.5542 26.5322 8.54354 26.5358 8.53192L26.5611 8.44283C26.5651 8.42922 26.5707 8.41625 26.5776 8.40402L26.7113 8.16029C26.7113 8.16029 26.7429 8.09391 26.7973 8.10861C26.8495 8.13733 26.8832 8.19089 26.8864 8.25032C26.8787 8.32283 26.8567 8.39309 26.8219 8.45706L26.8794 8.54887C26.9501 8.56728 27.0252 8.55264 27.0839 8.50922C27.1139 8.48945 27.1425 8.46789 27.1699 8.44462C27.1448 8.37688 27.2051 8.29051 27.369 8.3221C27.4256 8.34569 27.586 8.4736 27.3855 8.60548C27.3813 8.60798 27.38 8.61343 27.3824 8.61767C27.3842 8.6208 27.3878 8.62248 27.3913 8.62195C27.6102 8.60861 27.5824 8.87327 27.4359 8.95298C27.4241 8.95963 27.4199 8.97459 27.4265 8.98635C27.4271 8.98729 27.4276 8.98818 27.4283 8.98913C27.4607 9.02925 27.4782 9.07926 27.4782 9.13085C27.4782 9.13085 27.4782 9.20026 27.266 9.27339C27.266 9.27339 27.201 9.29976 27.2269 9.34778C27.2527 9.35721 27.2811 9.36699 27.316 9.37771C27.316 9.37771 27.509 9.42228 27.4711 9.52784C27.4711 9.52784 27.4403 9.61693 27.2572 9.5586C27.1977 9.56215 27.1381 9.56017 27.079 9.55279C26.9649 9.58957 26.8485 9.61855 26.7305 9.63921C26.6918 9.64697 26.657 9.66794 26.632 9.69848C26.5139 9.83219 26.1527 10.0211 25.9913 10.0229C25.8131 10.0229 25.789 9.88607 25.6585 9.74927C25.4049 9.48421 25.3617 9.15224 25.323 8.8234C25.3214 8.81326 25.3119 8.8062 25.3016 8.80782C25.2935 8.80897 25.2873 8.81535 25.286 8.8234C25.2414 9.2093 25.2183 9.5564 25.0043 9.7466C24.8743 9.8629 24.6702 9.95428 24.3391 10.0327C23.083 10.3303 21.7316 11.1021 21.8844 11.2767C21.9445 11.3462 22.0867 11.2077 22.3349 11.0936C23.2706 10.6632 24.4835 10.5772 24.8746 10.6079C24.9029 10.6103 24.9254 10.6327 24.9276 10.661C24.9403 10.7547 24.9604 10.8473 24.9878 10.9377C25.0222 11.0585 25.0609 11.2741 25.1892 11.394C25.4223 11.6124 25.3902 11.693 25.3355 11.9858C25.2998 12.1773 25.5617 12.3369 25.5685 12.3422H28.2691L28.6746 10.3468H31.4149C34.2167 10.3468 35.4621 9.06767 35.9379 6.61691C36.1604 5.47786 36.1519 3 32.4907 3ZM20.4475 12.3517C20.4854 12.3104 20.5291 12.2628 20.5812 12.2105C20.6989 12.0898 20.6066 11.7832 20.6299 11.6656C20.6596 11.5114 20.926 11.4299 20.968 11.2789C21.0246 11.073 20.6182 11.1082 20.812 10.8907C20.9333 10.7548 21.1106 10.8016 21.0986 10.6679C21.079 10.4509 21.2906 10.3034 21.3797 10.2357C21.7679 9.94157 22.6377 9.47825 23.1647 9.32356C23.7172 9.16265 22.9557 9.1774 22.3257 9.40868C21.7532 9.61808 23.0662 8.796 24.1053 8.53491C24.8454 8.34957 23.5614 8.31212 22.3787 8.8334C22.0026 8.99876 21.7932 9.10071 21.6427 9.19748C21.6393 9.19952 21.635 9.19848 21.6328 9.19508C21.6316 9.19309 21.6315 9.19063 21.6324 9.18854C21.6907 9.06869 21.8137 8.86374 21.7776 8.65167C21.7513 8.51624 21.7682 8.37599 21.8257 8.25065C21.8703 8.16596 21.8435 7.93871 21.893 7.81886C21.8974 7.80991 21.9076 7.80557 21.9171 7.80855L22.5525 8.0078L25.0366 7.16119L22.671 7.51184L21.8506 6.8105C21.7347 6.68746 21.614 6.20363 21.7353 6.02269C21.858 5.83435 22.0008 5.65979 22.1612 5.50229C22.2731 5.40425 22.6149 5.36188 22.7829 5.2795C22.9704 5.18502 23.1205 5.24921 23.2556 5.2274C23.4019 5.19141 23.5459 5.14678 23.6869 5.09363C23.6906 5.09258 23.693 5.08908 23.6927 5.08516C23.6916 5.03028 23.687 4.97551 23.6789 4.92121C23.6424 4.7728 23.6274 4.61989 23.6342 4.46715C23.6481 4.31967 23.7769 4.19093 23.7832 4.09285C23.7894 3.99488 23.718 3.89418 23.7723 3.79834C23.8228 3.70925 23.8361 3.64015 23.8936 3.45261C23.8794 3.34119 23.8085 3.30153 23.8598 3.18791C23.887 3.12781 23.9328 3.04264 23.9528 3.00027H15.3074L15.8011 5.37078H19.2071L18.8319 7.19093H21.3985L16.1589 8.14007L18.6372 8.13516L17.771 12.3516H20.4475V12.3517H20.4475ZM29.5704 6.93496C29.6149 6.95583 29.668 6.93662 29.6889 6.89211C29.6956 6.87767 29.6984 6.86172 29.6969 6.84582C29.6996 6.60964 29.7414 6.50229 29.7922 6.31334C29.8127 6.23759 29.7477 6.17702 29.6844 6.2118C29.3029 6.41765 29.0244 6.50365 28.8592 6.54011C28.8316 6.54759 28.812 6.57175 28.8101 6.60027C28.8079 6.62548 28.8232 6.64902 28.8471 6.65728C29.0984 6.72093 29.3411 6.81406 29.5704 6.93496Z" fill="white"/>
<path d="M19.0104 13.932H17.4375L17.5939 13.1865H21.6201L21.4571 13.932H19.8846L19.0536 17.9305H18.1722L19.0104 13.932Z" fill="white"/>
<path d="M26.6017 16.3719C26.6051 16.2009 26.6249 16.0308 26.6604 15.8635L27.2214 13.1865H28.1028L27.5419 15.8501C27.513 15.9886 27.4959 16.1291 27.4906 16.2703C27.4843 16.9141 27.9215 17.2257 28.5924 17.2257C29.3446 17.2257 29.8632 16.8122 30.0691 15.8444L30.623 13.1878H31.4905L30.9224 15.9059C30.6314 17.3023 29.7711 18.0001 28.4971 18.0001C27.331 17.9983 26.5918 17.375 26.6017 16.3719Z" fill="white"/>
<path d="M34.6021 16.4272L35.4354 17.9315H34.4996L33.7336 16.5413H32.4379L32.1536 17.9307H31.2656L32.2596 13.1865H34.2202C35.3653 13.1865 36.0182 13.7151 36.0092 14.6164C36.0003 15.5391 35.479 16.1848 34.6021 16.4272ZM35.1203 14.6989C35.1251 14.1838 34.7638 13.9329 34.1177 13.9329H32.9931L32.592 15.8169H33.7591C34.6151 15.8169 35.1132 15.4305 35.1203 14.6989Z" fill="white"/>
<path d="M26.1307 15.5545C26.0835 15.8748 25.9887 16.1862 25.8496 16.4786C25.6959 16.7964 25.4815 17.0811 25.2182 17.3163C24.9552 17.5494 24.6479 17.7272 24.3147 17.839C24.0097 17.9421 23.6898 17.9937 23.3677 17.9918C23.06 17.996 22.7542 17.9444 22.465 17.8394C22.1732 17.7337 21.9141 17.5537 21.7133 17.3173C21.5153 17.0752 21.3817 16.7868 21.3252 16.4791C21.2711 16.1736 21.2669 15.8614 21.3127 15.5545C21.3596 15.234 21.4539 14.9223 21.5926 14.6294C21.7466 14.3118 21.9616 14.0275 22.2254 13.7927C22.4882 13.5598 22.7954 13.3825 23.1286 13.2714C23.4333 13.1692 23.753 13.1177 24.0745 13.1194C24.3828 13.115 24.6893 13.1666 24.979 13.2719C25.2703 13.3774 25.5292 13.557 25.7298 13.7932C25.9277 14.035 26.0615 14.3228 26.1188 14.63C26.1726 14.9354 26.1767 15.2475 26.1307 15.5545ZM25.2557 15.5545C25.3189 15.0929 25.2784 14.6575 25.0525 14.3536C24.9364 14.1971 24.7804 14.0747 24.6006 13.9994C24.399 13.9177 24.1832 13.8771 23.9657 13.8805C23.7375 13.8796 23.5111 13.9201 23.2973 14C23.0902 14.0797 22.9016 14.2011 22.743 14.3564C22.4311 14.6603 22.2626 15.0952 22.1918 15.5563C22.1273 16.0153 22.1691 16.4502 22.3946 16.7527C22.5106 16.909 22.6665 17.0312 22.846 17.1065C23.0471 17.188 23.2626 17.2286 23.4796 17.2255C23.7076 17.2263 23.9341 17.1861 24.1479 17.1069C24.3547 17.0279 24.5434 16.9077 24.7021 16.7535C25.0164 16.4502 25.1844 16.0156 25.2557 15.5545Z" fill="white"/>
<path d="M34.9047 11.959H34.75L34.7687 11.8699H35.1889L35.1702 11.959H35.0165L34.9381 12.352H34.8258L34.9047 11.959ZM35.7918 11.8699L35.696 12.352H35.5913L35.6479 12.0655L35.4638 12.3012H35.4143L35.3158 12.0611L35.258 12.3503H35.1533L35.25 11.8682H35.3391L35.4593 12.1684L35.695 11.8682L35.7918 11.8699Z" fill="white"/>
</g>
</svg>
