<svg width="56" height="20" viewBox="0 0 56 20" fill="none" xmlns="http://www.w3.org/2000/svg">
<g opacity="0.3">
<mask id="mask0_12540_202622" style="mask-type:luminance" maskUnits="userSpaceOnUse" x="3" y="3" width="10" height="15">
<path d="M12.367 3H3.99609V18H12.367V3Z" fill="white"/>
</mask>
<g mask="url(#mask0_12540_202622)">
<mask id="mask1_12540_202622" style="mask-type:luminance" maskUnits="userSpaceOnUse" x="4" y="3" width="9" height="15">
<path d="M12.2327 3.10938H4.08984V17.8894H12.2327V3.10938Z" fill="white"/>
</mask>
<g mask="url(#mask1_12540_202622)">
<mask id="mask2_12540_202622" style="mask-type:luminance" maskUnits="userSpaceOnUse" x="4" y="3" width="9" height="15">
<path d="M12.2327 3.10938H4.08984V17.8894H12.2327V3.10938Z" fill="white"/>
</mask>
<g mask="url(#mask2_12540_202622)">
<path d="M9.89579 3.10938H6.41893C5.13259 3.10938 4.08594 4.11819 4.08594 5.35745V15.6414C4.08594 16.8808 5.13259 17.8895 6.41893 17.8895H9.89573C11.1821 17.8895 12.2285 16.8808 12.2285 15.6414V5.35745C12.2285 4.11813 11.1822 3.10938 9.89579 3.10938Z" fill="white"/>
</g>
</g>
</g>
<mask id="mask3_12540_202622" style="mask-type:luminance" maskUnits="userSpaceOnUse" x="3" y="3" width="10" height="15">
<path d="M12.367 3H3.99609V18H12.367V3Z" fill="white"/>
</mask>
<g mask="url(#mask3_12540_202622)">
<path d="M6.44284 3C5.09378 3 3.99609 4.05782 3.99609 5.35801V15.6419C3.99609 16.9424 5.09378 18.0002 6.4429 18.0002H9.91996C11.2694 18.0002 12.367 16.9424 12.367 15.6419V5.35801C12.367 4.05782 11.2693 3 9.91996 3H6.44284Z" fill="white"/>
</g>
<mask id="mask4_12540_202622" style="mask-type:luminance" maskUnits="userSpaceOnUse" x="4" y="10" width="8" height="8">
<path d="M4.58203 13.8075L4.5843 15.6418C4.5843 16.6309 5.41649 17.433 6.44258 17.433H9.91963C10.946 17.433 11.7782 16.6309 11.7782 15.6418L11.7791 10.0381C9.39621 10.6326 4.58203 12.0897 4.58203 13.8075Z" fill="white"/>
</mask>
<g mask="url(#mask4_12540_202622)">
<path d="M11.7791 10.0381H4.58203V17.433H11.7791V10.0381Z" fill="url(#paint0_radial_12540_202622)"/>
</g>
<mask id="mask5_12540_202622" style="mask-type:luminance" maskUnits="userSpaceOnUse" x="3" y="3" width="10" height="15">
<path d="M12.367 3H3.99609V18H12.367V3Z" fill="white"/>
</mask>
<g mask="url(#mask5_12540_202622)">
<path d="M11.976 17.61C11.9692 17.6032 11.9598 17.5971 11.9487 17.593C11.9709 17.5903 11.988 17.5826 11.9997 17.5702C12.0125 17.5585 12.0191 17.5433 12.0191 17.5263C12.0191 17.5134 12.0153 17.5013 12.0091 17.4908C12.002 17.4801 11.9923 17.4716 11.9801 17.4664C11.967 17.4609 11.9504 17.4581 11.9313 17.4581H11.809V17.6977H11.8617V17.6H11.8751C11.886 17.6 11.8945 17.6011 11.9016 17.604C11.9079 17.6071 11.915 17.6126 11.9224 17.6208C11.9295 17.6296 11.9372 17.642 11.9478 17.6598L11.9686 17.6977H12.0341L12.0037 17.6499C11.9923 17.6309 11.9832 17.6183 11.976 17.61ZM11.9038 17.5614H11.8617V17.4966H11.9093C11.9267 17.4966 11.9412 17.4996 11.95 17.5048C11.9586 17.5106 11.9632 17.5175 11.9632 17.5266C11.9632 17.5409 11.9577 17.5499 11.9478 17.5543C11.9372 17.559 11.9232 17.5614 11.9038 17.5614ZM11.9031 17.3193C11.7468 17.3193 11.6211 17.437 11.6211 17.5798C11.6211 17.7235 11.7468 17.8403 11.9031 17.8403C12.0585 17.8403 12.1841 17.7235 12.1841 17.5798C12.1841 17.4369 12.0584 17.3193 11.9031 17.3193ZM11.9031 17.7798C11.783 17.7798 11.6861 17.6903 11.6861 17.5798C11.6861 17.4696 11.783 17.3804 11.9031 17.3804C12.0225 17.3804 12.1194 17.4697 12.1194 17.5798C12.1194 17.6903 12.0225 17.7798 11.9031 17.7798Z" fill="#202324"/>
</g>
<mask id="mask6_12540_202622" style="mask-type:luminance" maskUnits="userSpaceOnUse" x="3" y="3" width="10" height="15">
<path d="M12.367 3H3.99609V18H12.367V3Z" fill="white"/>
</mask>
<g mask="url(#mask6_12540_202622)">
<path d="M8.18323 10.2812C7.94606 10.2812 7.75391 10.3294 7.75391 10.3887V10.6028C7.75391 10.6624 7.94606 10.7102 8.18323 10.7102C8.42013 10.7102 8.61203 10.6624 8.61203 10.6028V10.3887C8.61203 10.3294 8.42013 10.2812 8.18323 10.2812Z" fill="black"/>
</g>
<mask id="mask7_12540_202622" style="mask-type:luminance" maskUnits="userSpaceOnUse" x="4" y="3" width="8" height="9">
<path d="M6.48655 10.3661C6.49679 10.3752 6.62968 10.3639 6.66217 10.3425C6.69582 10.3224 6.56521 10.2823 6.54388 10.281C6.54388 10.281 6.47708 10.3574 6.48655 10.3661ZM6.42351 10.1689C6.42669 10.1719 6.44115 10.1729 6.46112 10.1722L6.44517 10.1274C6.43123 10.1464 6.4193 10.1651 6.42351 10.1689ZM8.21882 8.37355C8.20941 8.39005 8.22796 8.43343 8.21116 8.45186C8.20228 8.46099 8.19119 8.45986 8.18062 8.45843C8.16888 8.45711 8.15753 8.45599 8.14955 8.46586C8.13334 8.48536 8.15124 8.53705 8.15156 8.5623C8.15215 8.58893 8.16239 8.72055 8.11589 8.84249C8.10623 8.86893 7.98476 9.03237 7.87387 9.17055C7.76355 9.30906 7.65233 9.36431 7.63923 9.40031C7.62613 9.43568 7.65207 9.58299 7.60992 9.70749C7.60505 9.72312 7.61413 9.95531 7.46277 10.0479C7.43196 10.0663 7.42859 10.1119 7.37262 10.1207C7.27995 10.1355 7.10355 10.1655 7.10355 10.1655C7.10355 10.1655 7.12657 10.2405 7.02313 10.2971C7.0149 10.3017 7.00238 10.3081 6.98636 10.3146C7.67004 10.1605 8.40222 10.0278 9.18116 9.9135C9.17169 9.90112 9.16371 9.88793 9.1569 9.87637L8.27757 8.34305C8.27757 8.34305 8.22822 8.35736 8.21882 8.37355ZM7.39117 5.55585C7.36575 5.5626 7.34902 5.68585 7.36782 5.71267C7.48041 5.87379 7.52775 6.05898 7.52775 6.05898C7.52775 6.05898 7.70279 6.29073 7.70253 6.30873C7.70136 6.32742 7.67801 6.34004 7.67886 6.35298C7.67944 6.36561 7.70428 6.42754 7.73015 6.51029C7.77983 6.67011 7.70791 6.80742 7.69364 6.81373C7.68768 6.81679 7.676 6.81811 7.664 6.81923L7.70564 6.89448C7.73845 6.86623 7.81025 6.80217 7.82542 6.77442C7.8454 6.73792 7.95059 6.62361 7.95059 6.62361C7.95059 6.62361 7.96459 6.46379 7.94579 6.43217C7.92782 6.39986 7.77497 6.20204 7.72451 6.07642C7.6738 5.95079 7.64643 5.76879 7.65499 5.69367L7.54604 5.63723C7.54604 5.63723 7.4269 5.55529 7.39493 5.55529C7.39312 5.55535 7.39234 5.55566 7.39117 5.55585ZM6.44147 3.56672C5.41538 3.56672 4.5832 4.36847 4.5832 5.35779L4.58203 11.0336C5.12374 10.8187 5.72246 10.6299 6.37072 10.4634C6.36936 10.4629 6.36651 10.4621 6.36501 10.4612C6.34167 10.4516 6.33479 10.4121 6.34141 10.387C6.34822 10.3615 6.42383 10.2397 6.42552 10.2359C6.40101 10.237 6.34141 10.2397 6.32033 10.237C6.29407 10.234 6.28946 10.2112 6.29634 10.1931C6.30347 10.1741 6.33116 10.1359 6.32318 10.1348C6.31521 10.1342 6.27863 10.1189 6.2619 10.0851C6.24478 10.0512 6.23226 9.93756 6.24679 9.87431C6.2619 9.81081 6.36942 9.80512 6.39647 9.80699C6.42448 9.80837 6.74861 9.74462 6.7765 9.73831C6.77683 9.73831 6.77741 9.73799 6.77741 9.73743C6.89628 9.65856 7.05109 9.42393 7.05109 9.42393C7.05109 9.42393 6.98409 9.22774 6.96957 9.15218C6.95556 9.07687 6.93993 8.83068 6.94985 8.8098C6.9601 8.78805 6.92508 8.67349 6.91963 8.56855C6.91392 8.46443 6.9564 8.38724 6.98293 8.3298C7.01003 8.2718 7.09869 8.20536 7.12093 8.1883C7.14318 8.17074 7.13857 8.07042 7.1566 8.04955C7.16912 8.03549 7.19026 8.00936 7.20051 8.00224C7.20997 7.99486 7.20141 7.91492 7.24298 7.81899C7.2769 7.74011 7.49837 7.27467 7.57425 7.1153L7.48384 6.95673C7.44908 6.95455 7.4057 6.94792 7.36614 6.92955C7.3282 6.91254 7.2638 6.86798 7.22696 6.84242C7.19045 6.81717 7.19246 6.79348 7.19188 6.78192C7.19104 6.77036 7.13513 6.76654 7.09635 6.73661C7.07664 6.72148 7.03254 6.63954 7.02197 6.63492C6.96522 6.61017 6.97093 6.47004 6.97488 6.46017C6.97916 6.45073 6.97488 6.29104 6.97488 6.29104C6.97488 6.29104 6.92132 6.22492 6.90932 6.20698C6.87423 6.15517 6.85231 5.99167 6.85231 5.99167C6.85231 5.99167 6.74083 5.95354 6.71145 5.88729C6.70199 5.86542 6.57001 5.6161 6.54238 5.45766C6.53558 5.41548 6.51275 5.31485 6.5036 5.29516C6.4942 5.27454 6.50017 5.20448 6.50814 5.18479C6.51586 5.16479 6.53298 5.13604 6.54096 5.12391C6.54978 5.11129 6.54037 5.05922 6.53927 5.04791C6.53869 5.03635 6.8586 4.61866 6.93928 4.55079C7.02534 4.47929 7.278 4.35103 7.41192 4.32653C7.44416 4.32035 7.95934 4.28947 7.95934 4.28947L7.96103 4.2106C7.96103 4.2106 7.97303 4.21085 7.97244 4.1926C7.97153 4.1746 7.97212 4.08035 7.97153 4.07253C7.97095 4.06466 7.98178 4.06991 7.98178 4.06991L7.98042 4.04941C7.97756 3.99116 7.99293 3.9181 7.99696 3.90478C8.00065 3.89135 8.01952 3.87578 8.02659 3.8596C8.03373 3.84378 8.03684 3.83472 8.0716 3.73828C8.0978 3.66422 8.15286 3.60628 8.20163 3.56641H6.44147V3.56672ZM8.75339 3.56672C8.77706 3.58859 8.80274 3.61566 8.82758 3.64884C8.90054 3.74616 8.90567 3.85991 8.91021 3.86828C8.91338 3.8776 8.92901 3.87847 8.9353 3.87928C8.94211 3.87985 8.94672 3.89441 8.9556 3.92847C8.96475 3.96228 8.95586 4.04041 8.95528 4.0936C8.95469 4.14666 8.9436 4.21891 8.9436 4.21891L8.93245 4.22247C8.93245 4.22247 8.93109 4.23522 8.93414 4.27903C8.9379 4.32328 8.93355 4.40422 8.92992 4.42028C8.9259 4.43635 8.91909 4.46028 8.92253 4.4726C8.92538 4.48529 8.93245 4.49147 8.94788 4.51235C8.96475 4.53279 9.03997 4.6136 9.07188 4.6536C9.10411 4.69385 9.21216 4.80416 9.27318 4.87022C9.33414 4.93666 9.42111 5.04079 9.47643 5.13098C9.53181 5.2211 9.56113 5.32154 9.56113 5.32154C9.58143 5.42598 9.75815 6.07442 9.7955 6.29136C9.83221 6.50861 9.83253 6.68248 9.81113 6.80998C9.79628 6.89486 9.74356 7.04436 9.74356 7.04436C9.71334 7.0993 9.73876 7.0938 9.72449 7.13992C9.71275 7.17648 9.83195 7.40623 9.53376 7.62299C9.15768 7.89667 8.69814 8.13818 8.60462 8.19861L8.48062 7.97255H8.2993L9.13012 9.48156C9.20878 9.62306 9.21676 9.64199 9.31741 9.64199C9.40243 9.64199 9.5156 9.59362 9.64673 9.51637C9.77332 9.44056 9.90757 9.26993 9.91924 9.25343C9.93098 9.23668 9.96036 9.24605 9.9697 9.25343C9.97884 9.26087 9.97994 9.29412 9.97599 9.34412C9.97255 9.39387 9.94726 9.51468 9.89641 9.60737C9.86023 9.67406 9.78435 9.75981 9.6575 9.84724C10.3335 9.75624 11.0414 9.67793 11.778 9.60981L11.7772 5.35791C11.7772 4.3686 10.9449 3.56684 9.91859 3.56684H8.75339V3.56672Z" fill="white"/>
</mask>
<g mask="url(#mask7_12540_202622)">
<path d="M11.7783 3.56738H4.58203V11.0342H11.7783V3.56738Z" fill="url(#paint1_radial_12540_202622)"/>
</g>
<mask id="mask8_12540_202622" style="mask-type:luminance" maskUnits="userSpaceOnUse" x="3" y="3" width="10" height="15">
<path d="M12.367 3H3.99609V18H12.367V3Z" fill="white"/>
</mask>
<g mask="url(#mask8_12540_202622)">
<path d="M10.5909 16.491C10.9197 16.491 11.2475 16.4825 11.5691 16.4665C11.5806 16.446 11.5914 16.425 11.6019 16.4036C11.2698 16.4209 10.9307 16.43 10.5909 16.43C10.3979 16.43 10.206 16.4232 10.0159 16.4107C10.0299 16.2841 10.0458 16.1569 10.0641 16.0285L10.0013 16.0203C9.98312 16.15 9.96684 16.2786 9.95258 16.4061C8.58354 16.3053 7.30998 15.8953 6.34686 15.4082C6.79414 14.5902 7.44993 13.7093 8.24618 12.8831C8.29268 12.8353 8.33944 12.7883 8.38587 12.7413C8.97175 13.0083 9.77092 13.2373 10.6667 13.36C10.5552 13.667 10.4526 13.986 10.3614 14.3138L10.4224 14.3297C10.5145 13.9992 10.6177 13.6777 10.7303 13.3688C11.0687 13.4128 11.4205 13.4414 11.7786 13.4513V13.39C11.4305 13.3804 11.0861 13.3523 10.753 13.3084C11.0433 12.5253 11.3937 11.8245 11.7788 11.2611L11.7791 11.1521C11.3682 11.7346 10.9948 12.4717 10.6888 13.2998C9.81133 13.1787 9.01527 12.9542 8.43192 12.6945C9.21916 11.9071 10.0573 11.251 10.8521 10.7918C11.0623 10.9455 11.4594 11.0523 11.779 11.118V11.0551C11.3736 10.971 11.074 10.868 10.9115 10.7583C11.2088 10.59 11.4996 10.4487 11.779 10.3396V10.2745C11.4831 10.388 11.1737 10.5377 10.8578 10.718C10.8006 10.6688 10.7698 10.6188 10.7698 10.569C10.7698 10.4149 11.0446 10.2443 11.4908 10.1113C11.3323 10.1522 11.1655 10.1962 10.9922 10.2435C10.8075 10.346 10.7069 10.4575 10.7069 10.569C10.7069 10.6347 10.7419 10.6954 10.8012 10.7501C10.0015 11.2147 9.16015 11.8758 8.37128 12.6677C7.80331 12.4053 7.45265 12.1105 7.45265 11.8513C7.45265 11.5752 7.69241 11.3381 8.16512 11.1463C8.00856 11.2051 7.85376 11.2658 7.70071 11.3282C7.49422 11.482 7.38961 11.6571 7.38961 11.8513C7.38961 12.1271 7.74403 12.4387 8.32595 12.7138C8.2838 12.7562 8.24151 12.7984 8.19968 12.8418C7.39993 13.6711 6.74168 14.5567 6.29115 15.3798C5.25371 14.8451 4.59169 14.2233 4.58203 13.8167L4.58229 14.0598C4.77704 14.4736 5.40053 14.9882 6.26326 15.4317C5.90093 16.1049 5.67966 16.7347 5.63633 17.2556C5.65683 17.2652 5.67739 17.274 5.69846 17.2825C5.73582 16.7646 5.95534 16.1352 6.31884 15.4598C6.34024 15.4708 6.36158 15.4818 6.38356 15.4925C7.47263 16.0304 8.74055 16.3728 9.94706 16.4649C9.91224 16.7968 9.89226 17.1207 9.88805 17.4329H9.91995C9.9302 17.4329 9.94077 17.432 9.95128 17.432C9.95582 17.1218 9.97521 16.7998 10.01 16.4697C10.2058 16.4834 10.3999 16.491 10.5909 16.491Z" fill="white"/>
</g>
<mask id="mask9_12540_202622" style="mask-type:luminance" maskUnits="userSpaceOnUse" x="3" y="3" width="10" height="15">
<path d="M12.367 3H3.99609V18H12.367V3Z" fill="white"/>
</mask>
<g mask="url(#mask9_12540_202622)">
<path d="M5.95044 15.913C5.95044 16.033 5.84837 16.1317 5.72353 16.1317H5.62113C5.49687 16.1317 5.39453 16.033 5.39453 15.913V14.4785C5.39453 14.3581 5.49687 14.2598 5.62113 14.2598H5.72353C5.84837 14.2598 5.95044 14.3581 5.95044 14.4785V15.913ZM6.99307 15.913C6.99307 16.033 6.89126 16.1317 6.76609 16.1317H6.66408C6.53943 16.1317 6.4371 16.033 6.4371 15.913V14.4785C6.4371 14.3581 6.53943 14.2598 6.66408 14.2598H6.76609C6.89126 14.2598 6.99307 14.3581 6.99307 14.4785V15.913ZM9.10907 15.913C9.10907 16.033 9.00732 16.1317 8.88215 16.1317H8.7804C8.6555 16.1317 8.55342 16.033 8.55342 15.913V15.4143H8.03596V15.913C8.03596 16.033 7.9333 16.1317 7.80898 16.1317H7.70697C7.58206 16.1317 7.47998 16.033 7.47998 15.913V14.4785C7.47998 14.3581 7.58206 14.2598 7.70697 14.2598H7.80898C7.9333 14.2598 8.03596 14.3581 8.03596 14.4785V14.9771H8.55342V14.4785C8.55342 14.3581 8.6555 14.2598 8.7804 14.2598H8.88215C9.00732 14.2598 9.10907 14.3581 9.10907 14.4785V15.913ZM10.7367 14.9771C10.8616 14.9771 10.9637 15.0758 10.9637 15.1955C10.9637 15.3156 10.8616 15.4143 10.7367 15.4143H10.152V15.913C10.152 16.033 10.0496 16.1317 9.92504 16.1317H9.82297C9.6978 16.1317 9.59605 16.033 9.59605 15.913V14.4785C9.59605 14.3581 9.6978 14.2598 9.82297 14.2598H10.7367C10.8616 14.2598 10.9637 14.3581 10.9637 14.4785C10.9637 14.5983 10.8616 14.6969 10.7367 14.6969H10.152V14.9771H10.7367Z" fill="white"/>
</g>
<mask id="mask10_12540_202622" style="mask-type:luminance" maskUnits="userSpaceOnUse" x="3" y="3" width="10" height="15">
<path d="M12.367 3H3.99609V18H12.367V3Z" fill="white"/>
</mask>
<g mask="url(#mask10_12540_202622)">
<path d="M9.91532 3.11035H6.43846C5.15212 3.11035 4.10547 4.11873 4.10547 5.35849V15.6422C4.10547 16.882 5.15212 17.8906 6.43846 17.8906H9.91526C11.2017 17.8906 12.248 16.882 12.248 15.6422V5.35842C12.248 4.11873 11.2017 3.11035 9.91532 3.11035ZM12.0196 15.6422C12.0196 16.7605 11.0757 17.6702 9.91532 17.6702H6.43846C5.27787 17.6702 4.33414 16.7605 4.33414 15.6422V5.35842C4.33414 4.23998 5.27787 3.33041 6.43846 3.33041H9.91526C11.0757 3.33041 12.0196 4.24004 12.0196 5.35842L12.0196 15.6422Z" fill="#202324"/>
</g>
</g>
<path opacity="0.3" d="M18.6735 15.105C18.6735 15.8759 18.0126 16.5095 17.2043 16.5095H16.5413C15.7368 16.5095 15.0742 15.8759 15.0742 15.105V5.89437C15.0742 5.12147 15.7368 4.49023 16.5413 4.49023H17.2043C18.0126 4.49023 18.6735 5.12147 18.6735 5.89437V15.105ZM25.424 15.105C25.424 15.8759 24.7648 16.5095 23.9544 16.5095H23.2939C22.4869 16.5095 21.8243 15.8759 21.8243 15.105V5.89437C21.8243 5.12147 22.4869 4.49023 23.2939 4.49023H23.9544C24.7648 4.49023 25.424 5.12147 25.424 5.89437V15.105ZM39.1241 15.105C39.1241 15.8759 38.4653 16.5095 37.6549 16.5095H36.9961C36.1874 16.5095 35.5265 15.8759 35.5265 15.105V11.903H32.1762V15.105C32.1762 15.8759 31.5116 16.5095 30.7066 16.5095H30.0462C29.2374 16.5095 28.5765 15.8759 28.5765 15.105V5.89437C28.5765 5.12147 29.2374 4.49023 30.0462 4.49023H30.7066C31.5116 4.49023 32.1762 5.12147 32.1762 5.89437V9.09633H35.5265V5.89437C35.5265 5.12147 36.1874 4.49023 36.9961 4.49023H37.6549C38.4653 4.49023 39.1241 5.12147 39.1241 5.89437V15.105ZM49.6625 9.09633C50.4712 9.09633 51.1321 9.72958 51.1321 10.4985C51.1321 11.2698 50.4712 11.903 49.6625 11.903H45.8763V15.105C45.8763 15.8759 45.2137 16.5095 44.4071 16.5095H43.7462C42.9359 16.5095 42.2771 15.8759 42.2771 15.105V5.89437C42.2771 5.12147 42.9359 4.49023 43.7462 4.49023H49.6625C50.4712 4.49023 51.1321 5.12147 51.1321 5.89437C51.1321 6.66366 50.4712 7.29691 49.6625 7.29691H45.8763V9.09633H49.6625Z" fill="white"/>
<defs>
<radialGradient id="paint0_radial_12540_202622" cx="0" cy="0" r="1" gradientUnits="userSpaceOnUse" gradientTransform="translate(4.56772 6.68159) scale(8.41256 8.10746)">
<stop stop-color="#202324"/>
<stop offset="1" stop-color="#464646"/>
</radialGradient>
<radialGradient id="paint1_radial_12540_202622" cx="0" cy="0" r="1" gradientUnits="userSpaceOnUse" gradientTransform="translate(4.58188 5.36173) scale(6.891 6.64108)">
<stop stop-color="#202324"/>
<stop offset="0.4151" stop-color="#202324"/>
<stop offset="0.809" stop-color="#202324"/>
<stop offset="1" stop-color="#202324"/>
</radialGradient>
</defs>
</svg>
