<svg width="24" height="26" viewBox="0 0 24 26" fill="none" xmlns="http://www.w3.org/2000/svg">
<g opacity="0.3">
<path d="M22.1675 9.42656C22.1738 8.39343 22.3976 7.37292 22.8247 6.43006L23.5508 4.78556L21.8422 4.28181C21.0964 4.06406 20.5542 3.50506 20.2289 2.61781L19.4634 0.570312L17.7844 1.95156C17.2762 2.41164 16.6196 2.67878 15.9312 2.70556C15.0502 2.67932 14.212 2.32398 13.5852 1.71106L12.5042 0.651562L11.4232 1.71431C10.7978 2.3273 9.96056 2.68272 9.08051 2.70881C8.39055 2.68189 7.73266 2.41353 7.22408 1.95156L5.54508 0.570312L4.79265 2.62431C4.46408 3.51156 3.92522 4.07056 3.18265 4.28831L1.47079 4.79206L2.20022 6.43656C2.61917 7.37911 2.83728 8.39694 2.84094 9.42656C2.84094 12.2346 1.46094 12.7903 1.46094 15.7381C1.46094 19.6836 4.41808 22.5176 7.67094 23.3561C9.28422 23.7591 10.0334 23.8013 11.2359 24.1361C11.3937 24.3018 12.5042 25.4978 12.5042 25.4978C12.5042 25.4978 13.6148 24.3018 13.7725 24.1361C14.9751 23.8111 15.7439 23.7591 17.3408 23.3561C20.6002 22.5176 23.5475 19.6836 23.5475 15.7381C23.5475 12.7903 22.1675 12.2346 22.1675 9.42656ZM17.1437 22.6021C15.4187 23.0343 14.2259 23.1481 13.3487 23.4633C13.2337 23.5673 12.5042 24.3571 12.5042 24.3571C12.5042 24.3571 11.7748 23.5673 11.6631 23.4633C10.7858 23.1383 9.59308 23.0343 7.86479 22.6021C4.23079 21.6856 2.23637 18.6436 2.23637 15.7446C2.23637 13.1121 3.63279 12.3028 3.63279 9.42656C3.5939 7.98413 3.22069 6.5698 2.54194 5.29256C2.54194 5.29256 5.17051 5.06506 5.89337 1.87031C5.89337 1.87031 7.47708 3.49531 9.08051 3.49531C11.1439 3.49206 12.5042 1.74356 12.5042 1.74356C12.5042 1.74356 13.8645 3.49206 15.9312 3.49206C17.5347 3.49206 19.1151 1.86706 19.1151 1.86706C19.8281 5.06181 22.4665 5.28931 22.4665 5.28931C21.793 6.56889 21.4254 7.98432 21.3921 9.42656C21.3921 12.3028 22.7721 13.1121 22.7721 15.7446C22.7721 18.6436 20.7809 21.6856 17.1437 22.6021Z" fill="white"/>
<path d="M20.6166 9.42369C20.6219 8.17361 20.887 6.93797 21.3953 5.79344C21.3953 5.79344 19.6013 5.43269 18.7667 3.16744C17.9782 3.84791 16.9769 4.23924 15.9311 4.27569C14.6463 4.23985 13.4224 3.72567 12.5041 2.83594C11.5869 3.72519 10.3642 4.23936 9.08043 4.27569C8.04012 4.2366 7.04491 3.84537 6.26129 3.16744C5.42672 5.44244 3.63272 5.79344 3.63272 5.79344C4.13423 6.93939 4.39257 8.17498 4.39172 9.42369C4.39172 12.4657 3.01172 13.3464 3.01172 15.7417C3.01172 19.0924 5.64029 21.2244 8.05858 21.8387C9.98072 22.3229 11.2359 22.3782 12.0803 22.7844C12.0803 22.7844 12.3891 23.0639 12.5041 23.1939C12.6191 23.0639 12.928 22.7844 12.928 22.7844C13.7724 22.3782 15.0309 22.3229 16.953 21.8387C19.3779 21.2244 21.9966 19.0924 21.9966 15.7417C21.9966 13.3464 20.6166 12.4657 20.6166 9.42369ZM5.27558 9.42369C5.26871 8.35207 5.0913 7.28821 4.74986 6.27119C5.51441 5.84388 6.14965 5.22228 6.58986 4.47069C7.34548 4.90678 8.20239 5.14191 9.07715 5.15319C10.3162 5.13342 11.5166 4.72359 12.5041 3.98319C13.4921 4.72279 14.6923 5.13253 15.9311 5.15319C16.1688 5.1532 16.4061 5.13472 16.6409 5.09794L4.05329 14.5229C4.41472 13.1027 5.27558 11.9294 5.27558 9.42369ZM6.99072 20.4964C5.37743 19.6709 3.96129 18.0882 3.89558 15.9237L18.6813 4.87369C19.0972 5.45809 19.6407 5.94239 20.2716 6.29069C19.9277 7.30079 19.7459 8.35793 19.7327 9.42369C19.7311 9.90877 19.7662 10.3933 19.8379 10.8732L6.99072 20.4964ZM16.7394 20.9839C15.2149 21.3707 13.3519 21.5689 12.7966 21.8907C12.6955 21.9685 12.601 22.0544 12.514 22.1474C12.4276 22.055 12.3343 21.9691 12.2347 21.8907C11.6696 21.5657 9.80658 21.3707 8.29186 20.9839L8.11772 20.9384L20.1007 11.9684C20.5081 13.3919 21.1324 14.3247 21.1324 15.7417C21.1324 18.5822 18.862 20.4509 16.7526 20.9839" fill="white"/>
<path d="M9.38771 15.9247L8.00771 13.8154L6.47656 14.9497C6.55008 14.9522 6.62235 14.9691 6.6892 14.9994C6.75604 15.0298 6.81613 15.073 6.86595 15.1265C6.91578 15.18 6.95436 15.2428 6.97946 15.3112C7.00455 15.3796 7.01566 15.4522 7.01213 15.5249V19.4997L8.09313 18.6904V15.8922L9.32528 17.7739L10.4687 16.9192V11.9727L9.38771 12.7819V15.9247Z" fill="white"/>
<path d="M13.7603 11.3304L12.5413 12.2404V10.4009L10.8984 11.6359C10.9724 11.6376 11.0452 11.6539 11.1127 11.6839C11.1801 11.7139 11.2407 11.7571 11.291 11.8107C11.3413 11.8644 11.3801 11.9275 11.4052 11.9963C11.4304 12.0651 11.4413 12.1381 11.4373 12.2112V16.1924L12.5479 15.3604V13.5502L13.7669 12.6369V14.4472L14.8183 13.6509V8.71094L13.7603 9.50394V11.3304Z" fill="white"/>
<path d="M16.8538 10.8697V7.1875L15.2109 8.4225C15.2849 8.42414 15.3577 8.44045 15.4252 8.47047C15.4926 8.50049 15.5532 8.54361 15.6035 8.59727C15.6538 8.65093 15.6926 8.71403 15.7177 8.78282C15.7429 8.85162 15.7538 8.92471 15.7498 8.99775V12.9628L18.8154 10.6682C18.7731 10.249 18.7731 9.82655 18.8154 9.40725L16.8538 10.8697Z" fill="white"/>
<path d="M18.6548 4.85547L3.87891 15.925C3.95119 18.0992 5.36076 19.682 6.97076 20.5075L19.8245 10.8745C19.7516 10.3947 19.7153 9.91014 19.716 9.42497C19.7229 8.35335 19.9003 7.28949 20.2418 6.27247C19.6109 5.92417 19.0673 5.43987 18.6515 4.85547M10.4372 16.9195L9.29705 17.7742L8.07148 15.8925V18.6972L6.99048 19.5V15.5382C6.99446 15.4656 6.98364 15.3929 6.95868 15.3245C6.93371 15.2561 6.89511 15.1934 6.84515 15.14C6.79519 15.0867 6.73491 15.0438 6.66787 15.0139C6.60083 14.9841 6.52841 14.9679 6.45491 14.9662L7.98605 13.8157L9.36605 15.925V12.7822L10.447 11.973L10.4372 16.9195ZM14.8105 13.65L13.7525 14.443V12.636L12.5335 13.5492V15.3595L11.4229 16.1915V12.2232C11.4269 12.1502 11.416 12.0771 11.3909 12.0083C11.3657 11.9395 11.3269 11.8764 11.2766 11.8227C11.2264 11.7691 11.1657 11.726 11.0983 11.6959C11.0308 11.6659 10.958 11.6496 10.884 11.648L12.5269 10.413V12.2427L13.7459 11.3295V9.50297L14.8039 8.70997L14.8105 13.65ZM18.7993 10.6632L15.7338 12.9577V8.99597C15.7377 8.92293 15.7268 8.84984 15.7017 8.78104C15.6766 8.71225 15.6377 8.64915 15.5875 8.59549C15.5372 8.54183 15.4766 8.49871 15.4091 8.46869C15.3417 8.43867 15.2688 8.42235 15.1949 8.42072L16.8378 7.18572V10.868L18.8092 9.40547C18.767 9.82476 18.767 10.2472 18.8092 10.6665" fill="#202324"/>
<path d="M15.9293 5.15437C14.6904 5.13371 13.4903 4.72398 12.5023 3.98438C11.5156 4.72413 10.3164 5.13392 9.07854 5.15437C8.20267 5.14365 7.34456 4.9085 6.58797 4.47188C6.1454 5.22472 5.50801 5.84733 4.7414 6.27562C5.08543 7.29109 5.26507 8.35395 5.27369 9.42488C5.27369 11.9306 4.41612 13.1039 4.05469 14.5209L16.6423 5.09588C16.4075 5.13266 16.1702 5.15113 15.9325 5.15113" fill="#202324"/>
<path d="M8.10156 20.9387L8.2757 20.9842C9.79699 21.371 11.66 21.5692 12.2186 21.891C12.3181 21.9694 12.4115 22.0553 12.4978 22.1477C12.5848 22.0547 12.6793 21.9688 12.7804 21.891C13.3423 21.566 15.2053 21.371 16.7233 20.9842C18.8327 20.4512 21.1031 18.5825 21.1031 15.742C21.1031 14.325 20.4788 13.3922 20.0714 11.9688L8.10156 20.9387Z" fill="#202324"/>
<path d="M19.1084 1.86894C19.1084 1.86894 17.528 3.49394 15.9245 3.49394C13.8578 3.49069 12.4975 1.74219 12.4975 1.74219C12.4975 1.74219 11.1372 3.49069 9.07381 3.49069C7.47038 3.49069 5.88667 1.86569 5.88667 1.86569C5.17367 5.06044 2.53524 5.29119 2.53524 5.29119C3.21399 6.56842 3.5872 7.98276 3.62609 9.42519C3.62609 12.3014 2.24609 13.1107 2.24609 15.7432C2.24609 18.6422 4.24052 21.6842 7.87452 22.6007C9.60281 23.0329 10.7922 23.1467 11.6728 23.4619C11.7845 23.5659 12.514 24.3557 12.514 24.3557C12.514 24.3557 13.2434 23.5659 13.3584 23.4619C14.2357 23.1369 15.4284 23.0329 17.1534 22.6007C20.7907 21.6842 22.7818 18.6422 22.7818 15.7432C22.7818 13.1107 21.4018 12.3014 21.4018 9.42519C21.4361 7.98515 21.8037 6.57205 22.4762 5.29444C22.4762 5.29444 19.8477 5.06369 19.1248 1.86894M20.61 9.42519C20.61 12.4672 21.99 13.3479 21.99 15.7432C21.99 19.0939 19.3614 21.2259 16.9464 21.8402C15.0242 22.3244 13.7658 22.3797 12.9214 22.7859C12.9214 22.7859 12.6125 23.0654 12.4975 23.1954C12.3825 23.0654 12.0737 22.7859 12.0737 22.7859C11.2292 22.3797 9.97409 22.3244 8.05195 21.8402C5.62381 21.2259 3.00509 19.0939 3.00509 15.7432C3.00509 13.3479 4.38509 12.4672 4.38509 9.42519C4.37972 8.17511 4.11467 6.93947 3.60638 5.79494C3.60638 5.79494 5.40367 5.43419 6.23495 3.16894C7.02291 3.85033 8.02451 4.2418 9.07052 4.27719C10.3555 4.24167 11.5795 3.72744 12.4975 2.83744C13.4157 3.72717 14.6396 4.24135 15.9245 4.27719C16.9703 4.24074 17.9716 3.84941 18.7601 3.16894C19.5947 5.44394 21.3887 5.79494 21.3887 5.79494C20.8804 6.93947 20.6153 8.17511 20.61 9.42519Z" fill="#202324"/>
<path d="M24 4.57275L21.9201 3.96175C21.286 3.7765 20.8194 3.28575 20.5336 2.509L19.6136 0L17.5633 1.69325C17.1145 2.10493 16.532 2.34465 15.9204 2.36925C15.1299 2.34031 14.3788 2.02041 13.8143 1.47225L12.5 0.17225L11.1857 1.47225C10.6226 2.02046 9.87245 2.34044 9.08286 2.36925C8.47151 2.3438 7.88922 2.1042 7.44 1.69325L5.38643 0L4.46643 2.509C4.18057 3.28575 3.71729 3.7765 3.07986 3.96175L1 4.57275L1.88386 6.5715C2.28585 7.47044 2.49506 8.44205 2.49829 9.425C2.49829 12.1225 1.115 12.74 1.115 15.7365C1.115 20.0557 4.46643 22.8865 7.58129 23.6828C9.15514 24.063 9.63157 24.089 11.051 24.4368L12.5 26L13.949 24.4432C15.3717 24.0955 15.8449 24.0695 17.4187 23.6892C20.5336 22.8897 23.885 20.0622 23.885 15.743C23.885 12.7465 22.5017 12.129 22.5017 9.4315C22.504 8.44636 22.7133 7.47244 23.1161 6.5715L24 4.57275ZM22.1633 9.425C22.1633 12.233 23.5433 12.7887 23.5433 15.7365C23.5433 19.682 20.5861 22.516 17.3366 23.3545C15.7233 23.7575 14.9709 23.7997 13.7683 24.1345C13.6106 24.3002 12.5 25.4962 12.5 25.4962C12.5 25.4962 11.3894 24.3002 11.2317 24.1345C10.0291 23.8095 9.28 23.7575 7.66671 23.3545C4.404 22.516 1.45671 19.682 1.45671 15.7365C1.45671 12.7887 2.83671 12.233 2.83671 9.425C2.83306 8.39538 2.61495 7.37755 2.196 6.435L1.46986 4.7905L3.17843 4.28675C3.921 4.069 4.46314 3.51 4.78843 2.62275L5.54086 0.56875L7.21986 1.95C7.72984 2.40935 8.38711 2.67631 9.07629 2.704C9.95634 2.67791 10.7936 2.32249 11.419 1.7095L12.5 0.65L13.581 1.716C14.2074 2.32947 15.0459 2.6849 15.927 2.7105C16.6159 2.68054 17.2721 2.41125 17.7801 1.95L19.4591 0.5655L20.2116 2.6195C20.5401 3.50675 21.079 4.06575 21.8249 4.2835L23.5334 4.78725L22.8073 6.435C22.3803 7.37786 22.1565 8.39837 22.1501 9.4315" fill="#202324"/>
<path d="M22.9075 21.2383C22.7298 21.237 22.5557 21.288 22.4074 21.3847C22.259 21.4814 22.143 21.6195 22.0741 21.7815C22.0052 21.9435 21.9865 22.1221 22.0203 22.2946C22.0542 22.4672 22.1391 22.6259 22.2643 22.7506C22.3895 22.8753 22.5493 22.9605 22.7235 22.9953C22.8977 23.03 23.0784 23.0128 23.2426 22.9459C23.4069 22.8789 23.5474 22.7652 23.6463 22.6192C23.7451 22.4731 23.7979 22.3013 23.7979 22.1256C23.7983 22.0095 23.7756 21.8944 23.7311 21.787C23.6866 21.6796 23.6212 21.5819 23.5385 21.4995C23.4558 21.4171 23.3575 21.3517 23.2492 21.3068C23.141 21.262 23.0248 21.2387 22.9075 21.2383ZM22.9075 22.8211C22.7673 22.8223 22.63 22.7824 22.5129 22.7062C22.3958 22.6301 22.3042 22.5212 22.2498 22.3935C22.1955 22.2657 22.1807 22.1249 22.2075 21.9888C22.2343 21.8528 22.3014 21.7276 22.4002 21.6294C22.4991 21.5312 22.6253 21.4642 22.7627 21.4371C22.9001 21.41 23.0426 21.4239 23.172 21.4771C23.3014 21.5303 23.4119 21.6203 23.4894 21.7358C23.5669 21.8513 23.608 21.9869 23.6073 22.1256C23.6078 22.2167 23.59 22.3071 23.555 22.3915C23.52 22.4758 23.4685 22.5525 23.4035 22.6172C23.3385 22.6818 23.2612 22.7331 23.1761 22.7681C23.0909 22.803 22.9997 22.8211 22.9075 22.8211Z" fill="white"/>
<path d="M23.3493 21.9162C23.3493 21.8374 23.3179 21.7619 23.2619 21.7059C23.2059 21.6499 23.1299 21.618 23.0503 21.6172H22.6133V22.6279H22.8039V22.2184H22.9419L23.1324 22.6279H23.3493L23.1489 22.1989C23.208 22.1785 23.2592 22.1402 23.2951 22.0895C23.3311 22.0388 23.35 21.9781 23.3493 21.9162ZM23.0503 22.0267H22.8104V21.8057H23.0503C23.0799 21.8057 23.1083 21.8173 23.1293 21.8381C23.1502 21.8588 23.162 21.8869 23.162 21.9162C23.162 21.9455 23.1502 21.9736 23.1293 21.9943C23.1083 22.015 23.0799 22.0267 23.0503 22.0267Z" fill="white"/>
</g>
</svg>
