<svg width="36" height="16" viewBox="0 0 36 16" fill="none" xmlns="http://www.w3.org/2000/svg">
<path fill-rule="evenodd" clip-rule="evenodd" d="M17.7144 13.1888C18.9606 14.3162 20.6098 14.9996 22.4205 14.9996C26.2904 14.9996 29.427 11.8639 29.427 8.00279C29.427 4.14165 26.2904 1.00586 22.4205 1.00586C20.6098 1.00586 18.9606 1.68928 17.7144 2.81667C16.2995 4.09752 15.4141 5.94318 15.4141 8.00279C15.4141 10.0623 16.3019 11.908 17.7144 13.1888Z" fill="#FCB131"/>
<path fill-rule="evenodd" clip-rule="evenodd" d="M19.9778 7.26003C19.9473 7.0043 19.9122 6.75792 19.8607 6.51848H15.5645C15.616 6.26275 15.6887 6.01638 15.7706 5.77693H19.6545C19.5655 5.52127 19.4718 5.27483 19.3617 5.03545H16.0705C16.1876 4.77973 16.3282 4.53335 16.4734 4.29391H18.9588C18.7972 4.03118 18.6215 3.78481 18.4247 3.55236H17.0098C17.23 3.2897 17.4643 3.04326 17.7126 2.81081C16.4664 1.68342 14.8172 1 13.0065 1C9.13663 0.997644 6 4.13351 6 7.99458C6 11.8556 9.13663 14.9914 13.0065 14.9914C14.8172 14.9914 16.4664 14.308 17.7126 13.1806C17.9703 12.9482 18.2045 12.6994 18.4247 12.4391H17.0098C16.8201 12.2066 16.635 11.9579 16.4757 11.6976H18.9612C19.1087 11.4582 19.2469 11.2094 19.3641 10.9561H16.0728C15.9627 10.7166 15.8597 10.4679 15.773 10.2145H19.6569C19.7365 9.97506 19.8045 9.72633 19.863 9.47296C19.9146 9.23358 19.9591 8.98485 19.9801 8.73148C20.0012 8.49204 20.0176 8.24331 20.0176 7.98993C20.0176 7.75049 20.0106 7.50176 19.9801 7.26231L19.9778 7.26003Z" fill="#ED1B2E"/>
<path fill-rule="evenodd" clip-rule="evenodd" d="M28.4961 9.62193C28.4961 9.49875 28.5992 9.39648 28.7233 9.39648C28.8475 9.39648 28.9505 9.49875 28.9505 9.62193C28.9505 9.74512 28.8475 9.84738 28.7233 9.84738C28.5921 9.84738 28.4961 9.74512 28.4961 9.62193ZM28.7163 9.78932C28.8123 9.78932 28.885 9.71027 28.885 9.61493C28.885 9.51967 28.8123 9.44062 28.7163 9.44062C28.6202 9.44062 28.5476 9.51967 28.5476 9.61493C28.5476 9.71727 28.6273 9.78932 28.7163 9.78932ZM28.6858 9.71727H28.6413V9.52195H28.721C28.735 9.52195 28.7585 9.52195 28.7725 9.52895C28.7866 9.53595 28.7936 9.55916 28.7936 9.58008C28.7936 9.60101 28.7795 9.62429 28.7561 9.63122L28.7936 9.71955H28.7421L28.7116 9.6405H28.6741V9.61029H28.6952C28.6952 9.61029 28.7163 9.61029 28.7257 9.60337C28.735 9.59637 28.7397 9.58937 28.7397 9.58244C28.7397 9.57544 28.7327 9.56844 28.7257 9.56152C28.7186 9.55452 28.7046 9.56152 28.6952 9.56152H28.6741V9.72191H28.6812L28.6858 9.71727Z" fill="white"/>
<path fill-rule="evenodd" clip-rule="evenodd" d="M15.3377 10.0153C15.1034 10.0804 14.9418 10.1106 14.7661 10.1106C14.4147 10.1106 14.1875 9.88514 14.1875 9.47831C14.1875 9.39925 14.1945 9.31099 14.2086 9.21565L14.2531 8.93207L14.2906 8.70655L14.6209 6.73535H15.3541L15.2651 7.1654H15.7195L15.6094 7.89295H15.155L14.9582 9.07154C14.9512 9.12267 14.9441 9.1668 14.9441 9.18773C14.9441 9.3342 15.0238 9.39925 15.2018 9.39925C15.2908 9.39925 15.3564 9.39233 15.4361 9.36904L15.34 10.0153H15.3377Z" fill="#003473"/>
<path fill-rule="evenodd" clip-rule="evenodd" d="M17.6778 9.9971C17.4131 10.0762 17.1648 10.1134 16.9001 10.1134C16.0872 10.1134 15.6094 9.66939 15.6094 8.81858C15.6094 7.8283 16.1739 7.09375 16.9352 7.09375C17.5583 7.09375 17.9613 7.50059 17.9613 8.14216C17.9613 8.35368 17.9308 8.56292 17.8652 8.85578H16.3543C16.3473 8.89992 16.3473 8.92084 16.3473 8.94412C16.3473 9.27883 16.5745 9.45322 17.0149 9.45322C17.2866 9.45322 17.5349 9.39509 17.8067 9.27191L17.6755 9.99945L17.6778 9.9971ZM17.2304 8.28163C17.2374 8.2235 17.2374 8.17237 17.2374 8.13516C17.2374 7.90271 17.1062 7.76324 16.879 7.76324C16.6377 7.76324 16.4621 7.94456 16.3941 8.27927H17.2304V8.28163Z" fill="#003473"/>
<path fill-rule="evenodd" clip-rule="evenodd" d="M9.52338 10.0544H8.76206L9.19309 7.32541L8.22563 10.0544H7.70559L7.64 7.34169L7.18555 10.0544H6.44531L7.03797 6.50488H8.13192L8.16706 8.70153L8.90027 6.50488H10.102L9.52338 10.0544Z" fill="#003473"/>
<path fill-rule="evenodd" clip-rule="evenodd" d="M11.3539 8.77379C11.2742 8.76679 11.2578 8.75979 11.2063 8.75979C10.7729 8.75979 10.5551 8.92718 10.5551 9.19684C10.5551 9.37815 10.6652 9.48741 10.8268 9.48741C11.1922 9.49441 11.3398 9.19684 11.3539 8.77379ZM11.9559 10.0546H11.2953L11.3094 9.75707C11.1407 9.98252 10.9135 10.1057 10.5106 10.1057C10.1451 10.1057 9.83594 9.78492 9.83594 9.32002C9.83594 9.18291 9.85702 9.05737 9.89449 8.94111C10.0116 8.49714 10.4661 8.21356 11.1548 8.20656C11.2438 8.20656 11.375 8.20656 11.4921 8.22056C11.5132 8.12522 11.5225 8.08337 11.5225 8.03224C11.5225 7.84393 11.3609 7.77651 11.0095 7.77651C10.7893 7.77651 10.5481 7.81372 10.3794 7.86485L10.2763 7.89506L10.2318 7.90905L10.3349 7.26284C10.6933 7.15358 10.9369 7.10938 11.2227 7.10938C11.8739 7.10938 12.2206 7.39995 12.2206 7.95319C12.2206 8.09965 12.2347 8.19963 12.1831 8.52734L12.0215 9.55247L11.991 9.73379L11.97 9.88025L11.9559 9.98252V10.0546Z" fill="#003473"/>
<path fill-rule="evenodd" clip-rule="evenodd" d="M21.3404 7.19461C21.5536 7.19461 21.7503 7.25274 22.0221 7.38292L22.1462 6.61117C22.0806 6.58096 22.0572 6.57396 21.9635 6.53911L21.6473 6.46006C21.5512 6.43913 21.4341 6.42285 21.3099 6.42285C20.9351 6.42285 20.7079 6.42985 20.4807 6.56932C20.3565 6.64138 20.2019 6.75064 20.0262 6.94824L19.9372 6.91803L19.1595 7.47126L19.197 7.15748H18.3912L17.9297 10.0445H18.691L18.9698 8.4871C18.9698 8.4871 19.0799 8.27558 19.1314 8.21045C19.2696 8.02214 19.3961 8.02214 19.5554 8.02914H19.6069C19.5858 8.19653 19.5694 8.37784 19.5694 8.57544C19.5694 9.52151 20.1035 10.1096 20.9258 10.1096C21.1389 10.1096 21.3146 10.0794 21.6004 10.0073L21.7316 9.20073C21.4833 9.32392 21.2701 9.38205 21.0874 9.38205C20.647 9.38205 20.3753 9.05426 20.3753 8.51731C20.3682 7.73856 20.7641 7.19461 21.3357 7.19461H21.3404Z" fill="#003473"/>
<path fill-rule="evenodd" clip-rule="evenodd" d="M27.7684 6.5044L27.5998 7.5156C27.4171 7.23895 27.1969 7.10884 26.904 7.10884C26.5011 7.10884 26.1427 7.33429 25.9061 7.76433V7.75733L25.4212 7.47376L25.4587 7.15997H24.6529L24.1914 10.047H24.9527L25.201 8.4896C25.201 8.4896 25.3978 8.27108 25.4423 8.20602C25.5524 8.05955 25.6766 8.03163 25.7796 8.0247C25.6906 8.27108 25.6414 8.55466 25.6414 8.88244C25.6414 9.60306 26.0162 10.0819 26.5714 10.0819C26.8502 10.0819 27.0633 9.98662 27.2742 9.7611L27.2367 10.0448H27.9558L28.5344 6.49512H27.7637V6.50212L27.7684 6.5044ZM26.8385 9.37754C26.5808 9.37754 26.4496 9.1893 26.4496 8.81038C26.4496 8.24323 26.6909 7.84339 27.0422 7.84339C27.307 7.84339 27.4452 8.03863 27.4452 8.41054C27.4452 8.97778 27.1969 9.37754 26.8361 9.37754H26.8385Z" fill="#003473"/>
<path fill-rule="evenodd" clip-rule="evenodd" d="M23.3399 8.77095C23.2603 8.76402 23.2439 8.75702 23.1923 8.75702C22.759 8.75702 22.5411 8.92441 22.5411 9.19399C22.5411 9.37531 22.6512 9.48457 22.8129 9.48457C23.1877 9.49157 23.3329 9.19399 23.3399 8.77095ZM23.9419 10.0518H23.2814L23.2954 9.75423C23.1268 9.97975 22.8995 10.1029 22.4966 10.1029C22.1312 10.1029 21.7939 9.78915 21.8009 9.31026C21.8079 8.62684 22.3209 8.19679 23.1432 8.19679C23.2322 8.19679 23.3633 8.19679 23.4805 8.21072C23.5016 8.11545 23.5109 8.07361 23.5109 8.02247C23.5109 7.83416 23.3563 7.76674 22.9979 7.76674C22.7777 7.76674 22.5364 7.80395 22.3678 7.85508L22.2647 7.88529L22.2202 7.89929L22.3233 7.253C22.6817 7.14381 22.9253 7.09961 23.2111 7.09961C23.8623 7.09961 24.209 7.39019 24.209 7.94342C24.209 8.08989 24.2231 8.18979 24.1715 8.51758L24.0099 9.5427L23.9794 9.72402L23.9583 9.87049L23.9443 9.97275V10.0518H23.9419Z" fill="#003473"/>
<path fill-rule="evenodd" clip-rule="evenodd" d="M13.5337 7.7801C13.6812 7.7801 13.885 7.79402 14.1052 7.82423L14.2153 7.15481C13.9951 7.1176 13.7093 7.09668 13.5337 7.09668C12.6833 7.09668 12.4045 7.54765 12.4045 8.08696C12.4045 8.42867 12.5732 8.69132 12.9761 8.87964C13.283 9.02603 13.3345 9.05396 13.3345 9.18414C13.3345 9.36546 13.1799 9.46772 12.8801 9.46772C12.6528 9.46772 12.4397 9.43051 12.1984 9.35146L12.1094 10.014H12.1234L12.2616 10.0442C12.3061 10.0512 12.3717 10.0652 12.4584 10.0744C12.6411 10.0884 12.7887 10.1046 12.8918 10.1046C13.7351 10.1046 14.0865 9.77686 14.0865 9.14458C14.0865 8.75174 13.8967 8.51929 13.5149 8.34497C13.1986 8.1985 13.1565 8.17758 13.1635 8.0474C13.1635 7.901 13.3017 7.79174 13.529 7.78474L13.5337 7.7801Z" fill="#003473"/>
<path fill-rule="evenodd" clip-rule="evenodd" d="M22.3651 6.39478L22.2409 7.16654C21.9692 7.02942 21.7724 6.97822 21.5592 6.97822C20.9947 6.97822 20.5918 7.52453 20.5918 8.31021C20.5918 8.84952 20.8635 9.17494 21.3039 9.17494C21.4936 9.17494 21.6998 9.11681 21.9481 8.99363L21.8169 9.80023C21.5382 9.87228 21.3554 9.90257 21.1423 9.90257C20.3224 9.90257 19.8164 9.31441 19.8164 8.36834C19.8164 7.10376 20.5192 6.21582 21.5311 6.21582C21.6623 6.21582 21.7724 6.22975 21.8685 6.25303L22.1847 6.33201C22.2807 6.36222 22.2948 6.36921 22.3674 6.39714L22.3651 6.39478Z" fill="white"/>
<path fill-rule="evenodd" clip-rule="evenodd" d="M19.9053 6.91911C19.8842 6.91211 19.8538 6.91211 19.8327 6.91211C19.5844 6.91211 19.4438 7.04229 19.2096 7.37708L19.2752 6.94003H18.5865L18.125 9.8271H18.8863C19.1581 8.0605 19.2307 7.75364 19.5984 7.75364H19.657C19.7226 7.40493 19.8186 7.14927 19.9428 6.91675H19.9053V6.91911Z" fill="white"/>
<path fill-rule="evenodd" clip-rule="evenodd" d="M15.5158 9.79651C15.3097 9.86164 15.141 9.89184 14.9653 9.89184C14.5765 9.89184 14.3633 9.66632 14.3633 9.25956C14.3633 9.1805 14.3703 9.09217 14.3844 8.9969L14.4289 8.71325L14.4664 8.4878L14.7966 6.5166H15.5509L15.4619 6.94665H15.8508L15.7477 7.65327H15.3589L15.1621 8.85972C15.1551 8.91085 15.148 8.95505 15.148 8.97598C15.148 9.12237 15.2277 9.1875 15.4057 9.1875C15.4947 9.1875 15.5603 9.1805 15.6118 9.15729L15.5158 9.79651Z" fill="white"/>
<path fill-rule="evenodd" clip-rule="evenodd" d="M12.6163 7.85777C12.6163 8.22041 12.7919 8.47606 13.1949 8.66438C13.5017 8.81085 13.5462 8.85262 13.5462 8.98516C13.5462 9.16648 13.408 9.24782 13.1129 9.24782C12.8856 9.24782 12.6725 9.21061 12.4312 9.13163L12.3281 9.80105L12.3656 9.80805L12.5038 9.83826C12.5483 9.84526 12.6139 9.85218 12.7006 9.85918C12.8833 9.87311 13.0239 9.88011 13.1176 9.88011C13.9163 9.88011 14.2911 9.5756 14.2911 8.92003C14.2911 8.52719 14.1365 8.29475 13.7571 8.12043C13.4408 7.97396 13.4057 7.93911 13.4057 7.80664C13.4057 7.65318 13.5298 7.57412 13.7805 7.57412C13.9281 7.57412 14.1319 7.58812 14.3239 7.61833L14.434 6.94883C14.2373 6.91863 13.9351 6.8907 13.7664 6.8907C12.902 6.88378 12.6092 7.32775 12.6163 7.85777Z" fill="white"/>
<path fill-rule="evenodd" clip-rule="evenodd" d="M28.1558 9.83627H27.4367L27.4741 9.55269C27.261 9.77821 27.0502 9.87347 26.7714 9.87347C26.2209 9.87347 25.8555 9.39229 25.8555 8.67403C25.8555 7.71396 26.42 6.90735 27.0947 6.90735C27.3875 6.90735 27.6147 7.03054 27.8208 7.30019L27.9895 6.28906H28.7368L28.1582 9.83862L28.1558 9.83627ZM27.0338 9.15285C27.3851 9.15285 27.6358 8.75308 27.6358 8.17892C27.6358 7.81629 27.4976 7.61169 27.2329 7.61169C26.8885 7.61169 26.6402 8.01153 26.6402 8.57869C26.6472 8.96461 26.7784 9.15285 27.0361 9.15285H27.0338Z" fill="white"/>
<path fill-rule="evenodd" clip-rule="evenodd" d="M17.8458 9.76956C17.5811 9.84861 17.3328 9.88582 17.0681 9.88582C16.2177 9.88582 15.7773 9.44178 15.7773 8.59104C15.7773 7.60076 16.3419 6.86621 17.1032 6.86621C17.7263 6.86621 18.1292 7.27298 18.1292 7.91455C18.1292 8.12614 18.0988 8.33531 18.0332 8.62825H16.5223C16.5152 8.67238 16.5152 8.6933 16.5152 8.71658C16.5152 9.05129 16.7425 9.22561 17.1829 9.22561C17.4546 9.22561 17.7029 9.16748 17.9746 9.04429L17.8434 9.77192L17.8458 9.76956ZM17.4218 8.05409C17.4288 7.99596 17.4288 7.94483 17.4288 7.90762C17.4288 7.67517 17.2976 7.5357 17.0704 7.5357C16.8291 7.5357 16.6534 7.71702 16.5855 8.05173H17.4218V8.05409Z" fill="white"/>
<path fill-rule="evenodd" clip-rule="evenodd" d="M9.71168 9.83276H8.95036L9.39076 7.10373L8.41627 9.83276H7.89389L7.83532 7.12001L7.37385 9.83276H6.66406L7.25672 6.2832H8.34834L8.38582 8.47985L9.11902 6.2832H10.2997L9.71168 9.83276Z" fill="white"/>
<path fill-rule="evenodd" clip-rule="evenodd" d="M11.5914 8.54739C11.5117 8.54047 11.4742 8.53347 11.4227 8.53347C10.9893 8.53347 10.7715 8.67994 10.7715 8.97051C10.7715 9.15176 10.8816 9.26102 11.0432 9.26102C11.3501 9.26802 11.5773 8.97744 11.5937 8.54739H11.5914ZM12.1419 9.83518H11.5117L11.5258 9.53767C11.336 9.77712 11.0784 9.88638 10.727 9.88638C10.317 9.88638 10.0312 9.5656 10.0312 9.10063C10.0312 8.394 10.5232 7.98716 11.3641 7.98716C11.4532 7.98716 11.5609 7.99416 11.671 8.00809C11.6921 7.91282 11.7015 7.87097 11.7015 7.81984C11.7015 7.63153 11.5703 7.55719 11.2095 7.55719C10.9893 7.55719 10.7481 7.5874 10.5794 7.63617L10.4763 7.66638L10.4107 7.6873L10.5138 7.04109C10.8956 6.93183 11.1439 6.8877 11.4227 6.8877C12.0739 6.8877 12.4206 7.17827 12.4206 7.73151C12.4206 7.87797 12.4066 7.97788 12.3621 8.30566L12.2004 9.33079L12.17 9.51211L12.1489 9.65857L12.1348 9.76084L12.1419 9.83289V9.83518Z" fill="white"/>
<path fill-rule="evenodd" clip-rule="evenodd" d="M23.5726 8.54739C23.493 8.54047 23.4555 8.53347 23.404 8.53347C22.9706 8.53347 22.7527 8.67994 22.7527 8.97051C22.7527 9.15176 22.8628 9.26102 23.0245 9.26102C23.3407 9.26802 23.5586 8.97744 23.575 8.54739H23.5726ZM24.1301 9.83518H23.5L23.5141 9.53767C23.3243 9.77712 23.0666 9.88638 22.7153 9.88638C22.3053 9.88638 22.0195 9.5656 22.0195 9.10063C22.0195 8.394 22.5115 7.98716 23.3524 7.98716C23.4414 7.98716 23.5492 7.99416 23.6593 8.00809C23.6804 7.91282 23.6897 7.87097 23.6897 7.81984C23.6897 7.63153 23.5586 7.55719 23.1978 7.55719C22.9776 7.55719 22.7363 7.5874 22.5677 7.63617L22.4646 7.66638L22.399 7.6873L22.5021 7.04109C22.8839 6.93183 23.1322 6.8877 23.411 6.8877C24.0622 6.8877 24.4089 7.17827 24.4089 7.73151C24.4089 7.87797 24.3948 7.97788 24.3503 8.30566L24.1887 9.33079L24.1582 9.51211L24.1372 9.65857L24.1231 9.76084L24.1301 9.83289V9.83518Z" fill="white"/>
<path fill-rule="evenodd" clip-rule="evenodd" d="M26.1709 6.91911C26.1499 6.91211 26.1194 6.91211 26.0983 6.91211C25.85 6.91211 25.7095 7.04229 25.4752 7.37708L25.5408 6.94003H24.8521L24.3906 9.8271H25.1519C25.4237 8.0605 25.4963 7.75364 25.8641 7.75364H25.9156C25.9812 7.40493 26.0772 7.14927 26.2014 6.91675H26.1709V6.91911Z" fill="white"/>
</svg>
