<svg width="23" height="24" viewBox="0 0 23 24" fill="none" xmlns="http://www.w3.org/2000/svg">
<path d="M11.4309 23.2906C17.6664 23.2906 22.7213 18.2358 22.7213 12.0003C22.7213 5.76481 17.6664 0.709961 11.4309 0.709961C5.19547 0.709961 0.140625 5.76481 0.140625 12.0003C0.140625 18.2358 5.19547 23.2906 11.4309 23.2906Z" fill="#FEF0AE"/>
<path opacity="0.7" d="M6.90697 12.0003C6.90697 6.94347 10.2322 2.6633 14.8148 1.22579C13.7467 0.890737 12.6096 0.709961 11.4309 0.709961C5.19544 0.709961 0.140625 5.76477 0.140625 12.0003C0.140625 18.2358 5.19544 23.2906 11.4309 23.2906C12.6096 23.2906 13.747 23.1097 14.8151 22.7746C10.2326 21.3372 6.90697 17.0571 6.90697 12.0003Z" fill="#F1DB5A"/>
<path d="M6.90658 15.7297C7.11568 15.7297 7.31488 15.687 7.49593 15.61C7.18632 14.6918 6.99159 13.7208 6.92884 12.7139C6.9214 12.7138 6.91406 12.7134 6.90658 12.7134C6.07339 12.7134 5.39844 13.3888 5.39844 14.2215C5.39844 15.0543 6.07339 15.7297 6.90658 15.7297Z" fill="#FFE65C"/>
<path d="M22.7191 12.1891H22.7195C22.6931 13.8231 22.3191 15.3727 21.6688 16.7673L21.6679 16.7669C20.7964 16.4139 20.1816 15.5602 20.1816 14.5619C20.1816 13.2485 21.2465 12.1836 22.5599 12.1836C22.6133 12.1836 22.6662 12.1859 22.7191 12.1891Z" fill="#E8D04F"/>
<path d="M11.4298 21.5208C12.4135 21.5208 13.2403 22.1943 13.4729 23.106C12.8103 23.2273 12.1276 23.2907 11.4298 23.2907C10.7321 23.2907 10.0494 23.2273 9.38672 23.106C9.6193 22.1943 10.4461 21.5208 11.4298 21.5208Z" fill="#E8D04F"/>
<path d="M14.1546 16.4841C14.9148 16.4841 15.5314 17.1007 15.5314 17.8609C15.5314 18.6216 14.9148 19.2377 14.1546 19.2377C13.3939 19.2377 12.7773 18.6216 12.7773 17.8609C12.7773 17.1007 13.3939 16.4841 14.1546 16.4841Z" fill="#E8D04F"/>
<path d="M16.6514 15.2159C17.1891 15.2159 17.625 14.7799 17.625 14.2422C17.625 13.7045 17.1891 13.2686 16.6514 13.2686C16.1137 13.2686 15.6777 13.7045 15.6777 14.2422C15.6777 14.7799 16.1137 15.2159 16.6514 15.2159Z" fill="#E8D04F"/>
<path d="M14.5555 11.6511C16.0025 11.6511 17.1755 10.4781 17.1755 9.03111C17.1755 7.58414 16.0025 6.41113 14.5555 6.41113C13.1086 6.41113 11.9355 7.58414 11.9355 9.03111C11.9355 10.4781 13.1086 11.6511 14.5555 11.6511Z" fill="#E8D04F"/>
<path d="M6.90658 15.7297C7.73951 15.7297 8.41473 15.0544 8.41473 14.2215C8.41473 13.3886 7.73951 12.7134 6.90658 12.7134C6.07366 12.7134 5.39844 13.3886 5.39844 14.2215C5.39844 15.0544 6.07366 15.7297 6.90658 15.7297Z" fill="#E8D04F"/>
<path d="M4.1078 9.44653C4.61629 9.44653 5.02855 9.8588 5.02855 10.3668C5.02855 10.8753 4.61629 11.2876 4.1078 11.2876C3.59931 11.2876 3.1875 10.8753 3.1875 10.3668C3.1875 9.8588 3.59931 9.44653 4.1078 9.44653Z" fill="#E8D04F"/>
<path d="M8.04457 1.22726C8.14672 1.60441 8.2019 2.00117 8.2019 2.4107C8.2019 4.90208 6.18208 6.9219 3.69024 6.9219C2.94233 6.9219 2.23682 6.73949 1.61569 6.41752H1.61523C3.01301 3.9649 5.30373 2.08736 8.04457 1.22681V1.22726Z" fill="#E8D04F"/>
</svg>
